<svg width="20" height="20" viewBox="0 0 20 20" fill="none" xmlns="http://www.w3.org/2000/svg">
<path d="M0 1.25C0 0.918479 0.131696 0.600537 0.366117 0.366117C0.600537 0.131696 0.918479 0 1.25 0L16.25 0C16.5815 0 16.8995 0.131696 17.1339 0.366117C17.3683 0.600537 17.5 0.918479 17.5 1.25V7.5H12.5C11.837 7.5 11.2011 7.76339 10.7322 8.23223C10.2634 8.70107 10 9.33696 10 10V17.5H2.5V15H7.5V13.75H1.25C0.918479 13.75 0.600537 13.6183 0.366117 13.3839C0.131696 13.1495 0 12.8315 0 12.5V1.25Z" fill="#8D969F"/>
<path d="M11.25 10C11.25 9.66848 11.3817 9.35054 11.6161 9.11612C11.8505 8.8817 12.1685 8.75 12.5 8.75H18.75C19.0815 8.75 19.3995 8.8817 19.6339 9.11612C19.8683 9.35054 20 9.66848 20 10V18.75C20 19.0815 19.8683 19.3995 19.6339 19.6339C19.3995 19.8683 19.0815 20 18.75 20H12.5C12.1685 20 11.8505 19.8683 11.6161 19.6339C11.3817 19.3995 11.25 19.0815 11.25 18.75V10Z" fill="#8D969F"/>
</svg>
