<svg width="121" height="120" viewBox="0 0 121 120" fill="none" xmlns="http://www.w3.org/2000/svg">
<g clip-path="url(#clip0_62_2711)">
<rect x="0.5" width="120" height="120" rx="32" fill="#F2F3F7"/>
<path d="M41.4938 142.809C32.1098 133.425 27.4177 128.733 25.6598 123.322C24.1134 118.563 24.1134 113.437 25.6598 108.678C27.4177 103.267 32.1098 98.575 41.4938 89.1909L57.6909 72.9938C67.075 63.6098 71.767 58.9177 77.1775 57.1598C81.9367 55.6134 87.0633 55.6134 91.8225 57.1598C97.233 58.9177 101.925 63.6098 111.309 72.9938L127.506 89.1909C136.89 98.575 141.582 103.267 143.34 108.678C144.887 113.437 144.887 118.563 143.34 123.322C141.582 128.733 136.89 133.425 127.506 142.809L111.309 159.006C101.925 168.39 97.233 173.082 91.8225 174.84C87.0633 176.387 81.9367 176.387 77.1775 174.84C71.767 173.082 67.075 168.39 57.6909 159.006L41.4938 142.809Z" fill="#BCC3D0" fill-opacity="0.25"/>
<path d="M-27.5854 153.417C-38.5823 142.42 -44.0808 136.921 -46.1409 130.581C-47.953 125.004 -47.953 118.996 -46.1409 113.419C-44.0808 107.079 -38.5823 101.58 -27.5855 90.5833L3.08325 59.9146C14.0801 48.9177 19.5786 43.4192 25.919 41.3591C31.4961 39.547 37.5038 39.547 43.081 41.3591C49.4214 43.4192 54.9198 48.9177 65.9167 59.9145L96.5854 90.5832C107.582 101.58 113.081 107.079 115.141 113.419C116.953 118.996 116.953 125.004 115.141 130.581C113.081 136.921 107.582 142.42 96.5854 153.417L65.9167 184.085C54.9198 195.082 49.4214 200.581 43.081 202.641C37.5038 204.453 31.4961 204.453 25.919 202.641C19.5786 200.581 14.0802 195.082 3.08327 184.085L-27.5854 153.417Z" fill="#BBC1C7"/>
<path d="M84.5 30C84.5 35.5228 80.0228 40 74.5 40C68.9772 40 64.5 35.5228 64.5 30C64.5 24.4772 68.9772 20 74.5 20C80.0228 20 84.5 24.4772 84.5 30Z" fill="white"/>
</g>
<defs>
<clipPath id="clip0_62_2711">
<rect x="0.5" width="120" height="120" rx="32" fill="white"/>
</clipPath>
</defs>
</svg>
