<svg width="25" height="24" viewBox="0 0 25 24" fill="none" xmlns="http://www.w3.org/2000/svg">
<path fill-rule="evenodd" clip-rule="evenodd" d="M12.8751 21C13.2188 21 13.5706 20.9898 13.9254 20.9715C15.8999 20.8697 16.8871 20.8188 17.9621 20.1688C18.6376 19.7604 19.4082 18.949 19.7813 18.2533C20.3751 17.1463 20.3751 15.9309 20.3751 13.5C21.6287 13.3209 22.2555 13.2314 22.5513 12.8729C22.7145 12.6753 22.8123 12.4219 22.8245 12.1659C22.8464 11.7017 22.4471 11.2195 21.6484 10.255C20.8304 9.26729 19.8618 8.11971 18.8751 7C18.5382 6.61773 18.2131 6.23871 17.8973 5.8704C16.0866 3.75911 14.578 2 12.8751 2C11.1721 2 9.6635 3.75911 7.85285 5.8704C7.53699 6.23871 7.21194 6.61773 6.87506 7C5.88831 8.11971 4.91968 9.26729 4.1017 10.255C3.30303 11.2195 2.90369 11.7017 2.92566 12.1659C2.93778 12.4219 3.03565 12.6753 3.19878 12.8729C3.49457 13.2314 4.1214 13.3209 5.37504 13.5C5.37504 15.9308 5.37506 17.1463 5.96877 18.2533C6.34189 18.949 7.11249 19.7604 7.78804 20.1688C8.86301 20.8188 9.85025 20.8697 11.8247 20.9715C12.1795 20.9898 12.5313 21 12.8751 21Z" fill="#FF0032"/>
</svg>
