<svg width="20" height="21" viewBox="0 0 20 21" fill="none" xmlns="http://www.w3.org/2000/svg">
<path d="M10 0C7.92293 0 5.93094 0.815129 4.46223 2.26607C2.99352 3.71701 2.16841 5.6849 2.16841 7.73684V11.6362C2.16857 11.8077 2.12836 11.9768 2.05094 12.1303L0.129963 15.9246C0.0361251 16.11 -0.00818416 16.316 0.00124331 16.5231C0.0106708 16.7301 0.0735219 16.9313 0.183827 17.1076C0.294133 17.2839 0.44823 17.4295 0.631483 17.5304C0.814736 17.6313 1.02106 17.6842 1.23086 17.6842H18.7691C18.9789 17.6842 19.1853 17.6313 19.3685 17.5304C19.5518 17.4295 19.7059 17.2839 19.8162 17.1076C19.9265 16.9313 19.9893 16.7301 19.9988 16.5231C20.0082 16.316 19.9639 16.11 19.87 15.9246L17.9502 12.1303C17.8724 11.9769 17.8318 11.8078 17.8316 11.6362V7.73684C17.8316 5.6849 17.0065 3.71701 15.5378 2.26607C14.0691 0.815129 12.0771 0 10 0ZM10 21C9.30562 21.0004 8.62821 20.7879 8.06114 20.392C7.49408 19.9961 7.06526 19.4362 6.8338 18.7895H13.1662C12.9347 19.4362 12.5059 19.9961 11.9389 20.392C11.3718 20.7879 10.6944 21.0004 10 21Z" fill="#8D969F"/>
</svg>
