<svg width="21" height="21" viewBox="0 0 21 21" fill="none" xmlns="http://www.w3.org/2000/svg">
<path fill-rule="evenodd" clip-rule="evenodd" d="M1.96696 1.96696C0.435278 3.49865 0.321706 5.02464 0.094562 8.07663C0.0356806 8.86778 0 9.68389 0 10.5C0 11.3161 0.0356806 12.1322 0.094562 12.9234C0.321706 15.9754 0.435278 17.5014 1.96696 19.033C3.49865 20.5647 5.02464 20.6783 8.07663 20.9054C8.86778 20.9643 9.68389 21 10.5 21C11.3161 21 12.1322 20.9643 12.9234 20.9054C15.9754 20.6783 17.5014 20.5647 19.033 19.033C20.5647 17.5014 20.6783 15.9754 20.9054 12.9234C20.9643 12.1322 21 11.3161 21 10.5C21 9.68389 20.9643 8.86778 20.9054 8.07663C20.6783 5.02464 20.5647 3.49865 19.033 1.96696C17.5014 0.435278 15.9754 0.321706 12.9234 0.094562C12.1322 0.0356806 11.3161 0 10.5 0C9.68389 0 8.86778 0.0356806 8.07663 0.094562C5.02464 0.321706 3.49865 0.435278 1.96696 1.96696ZM6.4151 8.16639C6.4151 5.91043 8.24391 4.08162 10.4999 4.08162C12.7558 4.08162 14.5846 5.91043 14.5846 8.16639C14.5846 10.4223 12.7558 12.2511 10.4999 12.2511C8.24391 12.2511 6.4151 10.4223 6.4151 8.16639ZM11.4911 14.0247C13.2954 14.1149 15.0699 14.5382 18.3203 15.3609C18.1504 16.4273 17.9059 16.8601 17.3831 17.3829C16.5592 18.2068 15.9589 18.3395 12.7502 18.5783C12.0068 18.6336 11.2492 18.6664 10.5 18.6664C9.75075 18.6664 8.99315 18.6336 8.24981 18.5783C5.04105 18.3395 4.44078 18.2068 3.61688 17.3829C3.0941 16.8601 2.8496 16.4273 2.67971 15.3611C5.93375 14.538 7.70995 14.1145 9.51446 14.0246C9.84272 14.0082 10.1713 14 10.4999 14C10.8304 14 11.1609 14.0082 11.4911 14.0247Z" fill="#8D969F"/>
</svg>
